<svg xmlns="http://www.w3.org/2000/svg" width="1200" height="900" viewBox="0 0 800 600"><title>Meet your amazing body</title><desc>An illustrated child with eyes, nose and hands visible. Anushruti original artwork, dedicated to CC0.</desc><rect width="800" height="600" fill="#e8edf9"/><circle cx="400" cy="290" r="240" fill="#faf5e7"/><g stroke-linecap="round" stroke-linejoin="round"><path d="M359 443L345 554M440 443L457 554" stroke="#5368a4" stroke-width="51"/><path d="M326 315L254 398M474 315L546 398" stroke="#bf8963" stroke-width="38"/><circle cx="251" cy="400" r="27" fill="#bf8963"/><circle cx="549" cy="400" r="27" fill="#bf8963"/><path d="M328 295Q400 268 472 295L482 446Q400 474 318 446Z" fill="#70b09c"/><path d="M383 254V286Q400 310 417 286V254" fill="#bf8963"/><ellipse cx="400" cy="178" rx="89" ry="99" fill="#c89770"/><ellipse cx="311" cy="191" rx="15" ry="24" fill="#c89770"/><ellipse cx="489" cy="191" rx="15" ry="24" fill="#c89770"/><path d="M312 170Q283 64 399 64Q512 65 488 172L462 120Q386 163 336 126Z" fill="#47352f"/><ellipse cx="364" cy="182" rx="11" ry="14" fill="#293646"/><ellipse cx="436" cy="182" rx="11" ry="14" fill="#293646"/><path d="M400 191L393 215H405" stroke="#94603f" stroke-width="6" fill="none"/><path d="M377 235Q400 254 424 235" stroke="#673d35" stroke-width="6" fill="none"/><path d="M323 564H365M438 564H480" stroke="#e5aa4b" stroke-width="24"/></g><g fill="#617eac"><circle cx="146" cy="138" r="10"/><circle cx="637" cy="286" r="14"/><circle cx="180" cy="485" r="7"/></g></svg>
